<?xml version="1.0" encoding="utf-8"?>
<svg id="master-artboard" viewBox="0 0 785 735" xmlns="http://www.w3.org/2000/svg" width="785px" height="735px" version="1.1" style="shape-rendering:geometricPrecision; text-rendering:geometricPrecision; image-rendering:optimizeQuality; fill-rule:evenodd; clip-rule:evenodd"><rect id="ee-background" x="0" y="0" width="785" height="735" style="fill: rgb(255, 248, 245); fill-opacity: 0; pointer-events: none;"/><g transform="matrix(7.164290428161621, 0, 0, 7.164290428161621, -2324.661651611328, -3338.136245727539)"><g id="Layer_2_15_" transform="matrix(1, 0, 0, 1, 0, 0)">
	<g id="Layer_1-2_15_">
		<path class="st0" d="M 359.6953186035156 520.1728210449219 C 359.6953186035156 520.1728210449219 350.3999938964844 558.1546020507812 349.48466796875 557.7754028320312 L 331.09999999999997 525.3 C 328.4 520.5999999999999 328.4 512.9 331.09999999999997 508.09999999999997 L 347.7 479.29999999999995 C 350.4 474.59999999999997 357.09999999999997 470.9 362.4 470.9 L 395.7 470.9 C 401.09999999999997 470.9 407.7 474.59999999999997 410.4 479.29999999999995 L 427 508.09999999999997 C 429.7 512.8 429.7 520.5 427 525.1999999999999 L 410.4 554.1999999999999 C 407.7 558.9 401 562.9 395.59999999999997 562.9 L 360.4055236816406 562.615087890625 C 359.9443664550781 563.0733032226562 368.36578369140625 527.7775268554688 368.36578369140625 527.7775268554688 C 368.1099548339844 526.8701171875 375.38641357421875 531.1339111328125 375.38641357421875 531.1339111328125 C 378.2149963378906 532.274658203125 379.9921875 532.0342407226562 381.9540100097656 530.8611450195312 L 393.9770812988281 524.5674438476562 C 396.4122009277344 522.8477172851562 397.3031005859375 521.347412109375 397.2796936035156 519.34765625 L 397.8285217285156 505.29364013671875 C 397.5098876953125 502.528076171875 397.21392822265625 501.56103515625 394.9087829589844 499.4513854980469 L 383.4203796386719 491.9307861328125 C 381.77105712890625 490.8336181640625 379.3907775878906 490.3992614746094 377.0235595703125 491.4185485839844 L 364.8991394042969 497.4567565917969 C 362.97802734375 498.6705017089844 361.33416748046875 500.52337646484375 360.6447448730469 504.0597839355469 L 359.6953186035156 520.1728210449219 Z" style="fill: rgb(51, 51, 51); stroke: rgb(154, 160, 154); stroke-width: 4; paint-order: stroke;"/>
	<path style="fill: rgb(51, 51, 51); fill-opacity: 1; stroke: rgb(154, 160, 154); stroke-opacity: 1; stroke-width: 4; paint-order: fill;"/></g>
<path style="fill: rgb(51, 51, 51); fill-opacity: 1; stroke: rgb(154, 160, 154); stroke-opacity: 1; stroke-width: 2; paint-order: stroke;"/><path style="fill: rgb(51, 51, 51); fill-opacity: 1; stroke: rgb(154, 160, 154); stroke-opacity: 1; stroke-width: 4; paint-order: fill;"/><path style="fill: rgb(51, 51, 51); fill-opacity: 1; stroke: rgb(154, 160, 154); stroke-opacity: 1; stroke-width: 4; paint-order: fill;"/><path style="fill: rgb(51, 51, 51); fill-opacity: 1; stroke: rgb(154, 160, 154); stroke-opacity: 1; stroke-width: 4; paint-order: fill;"/></g></g><path d="M 711.1556396484375 507.4302062988281" style="fill: rgb(51, 51, 51); fill-opacity: 1; stroke: rgb(154, 160, 154); stroke-opacity: 1; stroke-width: 4; paint-order: fill;" transform="matrix(1, 0, 0, 1, -270.0000286102295, -210.00001525878906)"/><path d="M 488.5470886230469 926.6044921875" style="fill: rgb(51, 51, 51); fill-opacity: 1; stroke: rgb(154, 160, 154); stroke-opacity: 1; stroke-width: 4; paint-order: fill;" transform="matrix(1, 0, 0, 1, -270.0000286102295, -210.00001525878906)"/><g transform="matrix(1.7212803363800049, 1.0466670989990234, -1.0466691255569458, 1.7212786674499512, 303.6167297363281, -951.4075469970703)"><g id="g-1" transform="matrix(1.3106837256006822, 0.04742740594780914, -0.04742729791438105, 1.3106834871820023, -107.00824586399919, -175.28660714454406)">
	<g id="g-2" transform="matrix(0.5527912378311157, -5.551115123125783e-17, 0, 0.5527912378311157, 170.3613311957326, 229.5595307250452)">
		<path class="st0" d="M362.4,563c-5.4,0-12-4-14.7-8.7l-16.6-29c-2.7-4.7-2.7-12.4,0-17.2l16.6-28.8c2.7-4.7,9.4-8.4,14.7-8.4h33.3&#10;&#9;&#9;&#9;c5.4,0,12,3.7,14.7,8.4l16.6,28.8c2.7,4.7,2.7,12.4,0,17.1l-16.6,29c-2.7,4.7-9.4,8.7-14.8,8.7H362.4z" style="fill: rgb(51, 51, 51); stroke: rgb(154, 160, 154); stroke-width: 7;"/>
	</g>
</g></g><path d="M 645.669921875 537.97900390625" style="fill: rgb(51, 51, 51); fill-opacity: 1; stroke: rgb(154, 160, 154); stroke-opacity: 1; stroke-width: 4; paint-order: fill;" transform="matrix(1, 0, 0, 1, -270.0000286102295, -210.00001525878906)"/></svg>