<?xml version="1.0" encoding="utf-8"?>
<svg id="master-artboard" viewBox="0 0 1909.0615234375 797.7925415039062" xmlns="http://www.w3.org/2000/svg" width="1909.0615234375px" height="797.7925415039062px" version="1.1" style="shape-rendering:geometricPrecision; text-rendering:geometricPrecision; image-rendering:optimizeQuality; fill-rule:evenodd; clip-rule:evenodd"><defs><style id="ee-google-fonts">@import url(https://fonts.googleapis.com/css?family=Aclonica:400);</style></defs><rect id="ee-background" x="0" y="0" width="1909.0615234375" height="797.7925415039062" style="fill: rgb(255, 255, 255); fill-opacity: 0; pointer-events: none;"/><path d="M 817.6524658203125 642.4400024414062 C 817.6524658203125 648.0533447265625 816.58251953125 653.36669921875 814.4425048828125 658.3800048828125 C 812.302490234375 663.4000244140625 809.3858642578125 667.7566528320312 805.6925048828125 671.4500122070312 C 801.9991455078125 675.143310546875 797.6458129882812 678.0599975585938 792.6325073242188 680.2000122070312 C 787.6124877929688 682.3399658203125 782.2958374023438 683.4100341796875 776.6824951171875 683.4100341796875 C 771.0758056640625 683.4100341796875 765.7991943359375 682.3399658203125 760.8524780273438 680.2000122070312 C 755.9058227539062 678.0599975585938 751.5858154296875 675.143310546875 747.8925170898438 671.4500122070312 C 744.205810546875 667.7566528320312 741.29248046875 663.4000244140625 739.1525268554688 658.3800048828125 C 737.005859375 653.36669921875 735.9324951171875 648.0533447265625 735.9324951171875 642.4400024414062 C 735.9324951171875 636.8333740234375 737.005859375 631.556640625 739.1525268554688 626.6099853515625 C 741.29248046875 621.663330078125 744.205810546875 617.3433227539062 747.8925170898438 613.6500244140625 C 751.5858154296875 609.96337890625 755.9058227539062 607.046630859375 760.8524780273438 604.9000244140625 C 765.7991943359375 602.760009765625 771.0758056640625 601.6900024414062 776.6824951171875 601.6900024414062 C 782.2958374023438 601.6900024414062 787.6124877929688 602.760009765625 792.6325073242188 604.9000244140625 C 797.6458129882812 607.046630859375 801.9991455078125 609.96337890625 805.6925048828125 613.6500244140625 C 809.3858642578125 617.3433227539062 812.302490234375 621.663330078125 814.4425048828125 626.6099853515625 C 816.58251953125 631.556640625 817.6524658203125 636.8333740234375 817.6524658203125 642.4400024414062 M 814.33251953125 960 L 739.2625122070312 960 L 739.2625122070312 704.4500122070312 L 814.33251953125 704.4500122070312 L 814.33251953125 960 ZM 1147.166015625 831.5599975585938 C 1147.166015625 844.8466796875 1145.39599609375 857.3200073242188 1141.85595703125 868.97998046875 C 1138.309326171875 880.6466674804688 1133.3992919921875 891.4266357421875 1127.1259765625 901.3200073242188 C 1120.8526611328125 911.2066650390625 1113.2860107421875 920.0999755859375 1104.426025390625 928 C 1095.5726318359375 935.9000244140625 1085.865966796875 942.5800170898438 1075.3060302734375 948.0399780273438 C 1064.752685546875 953.5066528320312 1053.4593505859375 957.7133178710938 1041.426025390625 960.6599731445312 C 1029.3927001953125 963.6133422851562 1017.029296875 965.0900268554688 1004.3359985351562 965.0900268554688 C 991.635986328125 965.0900268554688 979.309326171875 963.6133422851562 967.3560180664062 960.6599731445312 C 955.39599609375 957.7133178710938 944.1393432617188 953.5066528320312 933.5859985351562 948.0399780273438 C 923.0260009765625 942.5800170898438 913.3159790039062 935.9000244140625 904.4559936523438 928 C 895.6026611328125 920.0999755859375 888.039306640625 911.2066650390625 881.7659912109375 901.3200073242188 C 875.4860229492188 891.4266357421875 870.5759887695312 880.6099853515625 867.0360107421875 868.8699951171875 C 863.4893188476562 857.1366577148438 861.7160034179688 844.7000122070312 861.7160034179688 831.5599975585938 C 861.7160034179688 818.4199829101562 863.4893188476562 805.97998046875 867.0360107421875 794.239990234375 C 870.5759887695312 782.5066528320312 875.4860229492188 771.693359375 881.7659912109375 761.7999877929688 C 888.039306640625 751.9066772460938 895.6026611328125 743.0133056640625 904.4559936523438 735.1199951171875 C 913.3159790039062 727.219970703125 923.0260009765625 720.5399780273438 933.5859985351562 715.0800170898438 C 944.1393432617188 709.6133422851562 955.39599609375 705.4033203125 967.3560180664062 702.4500122070312 C 979.309326171875 699.4967041015625 991.635986328125 698.02001953125 1004.3359985351562 698.02001953125 C 1017.029296875 698.02001953125 1029.3927001953125 699.4967041015625 1041.426025390625 702.4500122070312 C 1053.4593505859375 705.4033203125 1064.752685546875 709.6133422851562 1075.3060302734375 715.0800170898438 C 1085.865966796875 720.5399780273438 1095.5726318359375 727.219970703125 1104.426025390625 735.1199951171875 C 1113.2860107421875 743.0133056640625 1120.8526611328125 751.9066772460938 1127.1259765625 761.7999877929688 C 1133.3992919921875 771.693359375 1138.309326171875 782.5066528320312 1141.85595703125 794.239990234375 C 1145.39599609375 805.97998046875 1147.166015625 818.4199829101562 1147.166015625 831.5599975585938 M 1070.9859619140625 831.5599975585938 C 1070.9859619140625 824.4733276367188 1070.5826416015625 816.97998046875 1069.7760009765625 809.0800170898438 C 1068.962646484375 801.1799926757812 1067.595947265625 793.4299926757812 1065.676025390625 785.8300170898438 C 1063.7559814453125 778.2233276367188 1061.135986328125 770.9166870117188 1057.8160400390625 763.9100341796875 C 1054.4959716796875 756.8966674804688 1050.3992919921875 750.77001953125 1045.5260009765625 745.530029296875 C 1040.6527099609375 740.2833251953125 1034.8193359375 736.0733642578125 1028.0260009765625 732.9000244140625 C 1021.2393188476562 729.7266845703125 1013.3426513671875 728.1400146484375 1004.3359985351562 728.1400146484375 C 995.7693481445312 728.1400146484375 988.166015625 729.7633056640625 981.5260009765625 733.010009765625 C 974.8793334960938 736.2633056640625 969.0859985351562 740.5833129882812 964.14599609375 745.969970703125 C 959.1993408203125 751.356689453125 955.0626831054688 757.5933227539062 951.7360229492188 764.6799926757812 C 948.416015625 771.7666625976562 945.72265625 779.1133422851562 943.656005859375 786.719970703125 C 941.58935546875 794.3200073242188 940.1126708984375 801.9967041015625 939.2260131835938 809.75 C 938.33935546875 817.4967041015625 937.89599609375 824.7666625976562 937.89599609375 831.5599975585938 C 937.89599609375 838.3533325195312 938.33935546875 845.6233520507812 939.2260131835938 853.3699951171875 C 940.1126708984375 861.1233520507812 941.58935546875 868.836669921875 943.656005859375 876.510009765625 C 945.72265625 884.1900024414062 948.416015625 891.5366821289062 951.7360229492188 898.5499877929688 C 955.0626831054688 905.5633544921875 959.1993408203125 911.7633056640625 964.14599609375 917.1500244140625 C 969.0859985351562 922.5366821289062 974.8793334960938 926.8533325195312 981.5260009765625 930.0999755859375 C 988.166015625 933.3533325195312 995.7693481445312 934.97998046875 1004.3359985351562 934.97998046875 C 1013.1959838867188 934.97998046875 1021.0193481445312 933.3900146484375 1027.8060302734375 930.2100219726562 C 1034.599365234375 927.0366821289062 1040.4693603515625 922.7933349609375 1045.416015625 917.47998046875 C 1050.3626708984375 912.1666870117188 1054.4593505859375 906.0399780273438 1057.7060546875 899.0999755859375 C 1060.95263671875 892.1600341796875 1063.5726318359375 884.8533325195312 1065.5660400390625 877.1799926757812 C 1067.559326171875 869.5 1068.962646484375 861.75 1069.7760009765625 853.9299926757812 C 1070.5826416015625 846.1033325195312 1070.9859619140625 838.6466674804688 1070.9859619140625 831.5599975585938 ZM 1455.8741455078125 813.4000244140625 C 1455.8741455078125 830.67333984375 1453.770751953125 848.683349609375 1449.564208984375 867.4299926757812 C 1445.350830078125 886.183349609375 1439.4808349609375 904.5633544921875 1431.9541015625 922.5700073242188 C 1424.427490234375 940.5833129882812 1415.4207763671875 957.5266723632812 1404.93408203125 973.4000244140625 C 1394.4541015625 989.2666625976562 1382.9407958984375 1002.9600219726562 1370.3941650390625 1014.47998046875 L 1342.26416015625 999.2000122070312 C 1346.2508544921875 991.8133544921875 1350.0174560546875 983.5433349609375 1353.5640869140625 974.3900146484375 C 1357.1041259765625 965.2366943359375 1360.3140869140625 955.530029296875 1363.194091796875 945.27001953125 C 1366.0740966796875 935.010009765625 1368.657470703125 924.4199829101562 1370.944091796875 913.5 C 1373.2308349609375 902.5733642578125 1375.1507568359375 891.7566528320312 1376.7041015625 881.0499877929688 C 1378.2508544921875 870.3499755859375 1379.4307861328125 859.943359375 1380.244140625 849.8300170898438 C 1381.0574951171875 839.7166748046875 1381.464111328125 830.3033447265625 1381.464111328125 821.5899658203125 C 1381.464111328125 815.836669921875 1381.244140625 809.67333984375 1380.80419921875 803.0999755859375 C 1380.357421875 796.5333251953125 1379.43408203125 789.9633178710938 1378.0341796875 783.3900146484375 C 1376.62744140625 776.8233642578125 1374.744140625 770.5133056640625 1372.3841552734375 764.4600219726562 C 1370.024169921875 758.4066772460938 1366.887451171875 753.0933227539062 1362.97412109375 748.52001953125 C 1359.060791015625 743.9400024414062 1354.33740234375 740.2467041015625 1348.80419921875 737.4400024414062 C 1343.26416015625 734.6400146484375 1336.7308349609375 733.239990234375 1329.2041015625 733.239990234375 C 1321.8240966796875 733.239990234375 1315.254150390625 734.9000244140625 1309.494140625 738.219970703125 C 1303.734130859375 741.5399780273438 1298.640869140625 745.893310546875 1294.214111328125 751.280029296875 C 1289.7874755859375 756.67333984375 1285.984130859375 762.836669921875 1282.80419921875 769.77001953125 C 1279.630859375 776.7100219726562 1277.0474853515625 783.8333129882812 1275.05419921875 791.1400146484375 C 1273.060791015625 798.453369140625 1271.620849609375 805.6533203125 1270.734130859375 812.739990234375 C 1269.8541259765625 819.82666015625 1269.4141845703125 826.17333984375 1269.4141845703125 831.780029296875 L 1269.4141845703125 960 L 1194.3341064453125 960 L 1194.3341064453125 704.22998046875 L 1223.1241455078125 704.22998046875 L 1257.4541015625 763.7999877929688 C 1261.5875244140625 753.9066772460938 1266.754150390625 744.9000244140625 1272.9541015625 736.780029296875 C 1279.1541748046875 728.6600341796875 1286.16748046875 721.719970703125 1293.994140625 715.9600219726562 C 1301.8140869140625 710.2066650390625 1310.4874267578125 705.7766723632812 1320.01416015625 702.6700439453125 C 1329.5341796875 699.5700073242188 1339.830810546875 698.02001953125 1350.9041748046875 698.02001953125 C 1368.617431640625 698.02001953125 1384.044189453125 700.9000244140625 1397.18408203125 706.6600341796875 C 1410.3240966796875 712.4199829101562 1421.250732421875 720.4299926757812 1429.964111328125 730.6900024414062 C 1438.6707763671875 740.9500122070312 1445.16748046875 753.1300048828125 1449.4541015625 767.22998046875 C 1453.734130859375 781.3300170898438 1455.8741455078125 796.719970703125 1455.8741455078125 813.4000244140625 ZM 1566.8201904296875 838.6500244140625 C 1575.9735107421875 840.7166748046875 1585.1268310546875 842.3399658203125 1594.2801513671875 843.52001953125 C 1603.4334716796875 844.7000122070312 1612.66015625 845.2899780273438 1621.960205078125 845.2899780273438 C 1631.7001953125 845.2899780273438 1640.7435302734375 844.36669921875 1649.090087890625 842.52001953125 C 1657.43017578125 840.67333984375 1664.6634521484375 837.5733642578125 1670.7901611328125 833.219970703125 C 1676.9168701171875 828.86669921875 1681.7501220703125 823.0733642578125 1685.2901611328125 815.8399658203125 C 1688.8367919921875 808.5999755859375 1690.610107421875 799.5933227539062 1690.610107421875 788.8200073242188 C 1690.610107421875 780.106689453125 1689.43017578125 772.13330078125 1687.0701904296875 764.9000244140625 C 1684.7034912109375 757.6666870117188 1681.19677734375 751.4666748046875 1676.5501708984375 746.2999877929688 C 1671.8968505859375 741.13330078125 1666.1734619140625 737.1099853515625 1659.380126953125 734.22998046875 C 1652.593505859375 731.3499755859375 1644.69677734375 729.9100341796875 1635.690185546875 729.9100341796875 C 1627.27685546875 729.9100341796875 1619.710205078125 731.4600219726562 1612.9901123046875 734.5599975585938 C 1606.2701416015625 737.6600341796875 1600.363525390625 741.8333129882812 1595.2701416015625 747.0800170898438 C 1590.1767578125 752.3200073242188 1585.823486328125 758.4100341796875 1582.210205078125 765.3499755859375 C 1578.590087890625 772.2833251953125 1575.60009765625 779.5166625976562 1573.2401123046875 787.0499877929688 C 1570.880126953125 794.57666015625 1569.1834716796875 802.1799926757812 1568.150146484375 809.8599853515625 C 1567.1168212890625 817.5333251953125 1566.60009765625 824.7666625976562 1566.60009765625 831.5599975585938 C 1566.60009765625 832.739990234375 1566.60009765625 833.9199829101562 1566.60009765625 835.0999755859375 C 1566.60009765625 836.280029296875 1566.6734619140625 837.4633178710938 1566.8201904296875 838.6500244140625 M 1751.2901611328125 788.1500244140625 C 1751.2901611328125 798.6366577148438 1749.590087890625 807.9766845703125 1746.190185546875 816.1699829101562 C 1742.796875 824.3633422851562 1738.1834716796875 831.5599975585938 1732.35009765625 837.760009765625 C 1726.516845703125 843.9600219726562 1719.763427734375 849.2000122070312 1712.090087890625 853.47998046875 C 1704.41015625 857.760009765625 1696.216796875 861.2666625976562 1687.5101318359375 864 C 1678.796875 866.7333374023438 1669.8267822265625 868.6900024414062 1660.60009765625 869.8699951171875 C 1651.37353515625 871.0499877929688 1642.4068603515625 871.6400146484375 1633.7001953125 871.6400146484375 C 1622.6268310546875 871.6400146484375 1611.7001953125 870.86669921875 1600.920166015625 869.3200073242188 C 1590.1468505859375 867.7666625976562 1579.516845703125 865.2933349609375 1569.0301513671875 861.9000244140625 C 1570.6568603515625 871.6400146484375 1573.2401123046875 880.9033203125 1576.7801513671875 889.6900024414062 C 1580.3267822265625 898.4766845703125 1585.053466796875 906.1533203125 1590.960205078125 912.719970703125 C 1596.860107421875 919.2866821289062 1604.130126953125 924.489990234375 1612.7701416015625 928.3300170898438 C 1621.4034423828125 932.1699829101562 1631.6268310546875 934.0900268554688 1643.440185546875 934.0900268554688 C 1651.266845703125 934.0900268554688 1658.7235107421875 932.9099731445312 1665.8101806640625 930.5499877929688 C 1672.8968505859375 928.183349609375 1679.39013671875 924.8599853515625 1685.2901611328125 920.5800170898438 C 1691.19677734375 916.2999877929688 1696.4034423828125 911.2066650390625 1700.91015625 905.2999877929688 C 1705.41015625 899.393310546875 1709.0634765625 892.8233642578125 1711.8701171875 885.5899658203125 L 1744.2001953125 897.5499877929688 C 1739.3267822265625 909.2166748046875 1732.6468505859375 919.2933349609375 1724.16015625 927.780029296875 C 1715.6668701171875 936.2666625976562 1706.0701904296875 943.280029296875 1695.3701171875 948.8200073242188 C 1684.6634521484375 954.3533325195312 1673.296875 958.4500122070312 1661.2701416015625 961.1099853515625 C 1649.23681640625 963.7633056640625 1637.3134765625 965.0900268554688 1625.5001220703125 965.0900268554688 C 1606.013427734375 965.0900268554688 1588.0035400390625 961.806640625 1571.47021484375 955.239990234375 C 1554.936767578125 948.6666870117188 1540.690185546875 939.4766845703125 1528.7301025390625 927.6699829101562 C 1516.7701416015625 915.856689453125 1507.3934326171875 901.7566528320312 1500.60009765625 885.3699951171875 C 1493.8134765625 868.9833374023438 1490.420166015625 851.0466918945312 1490.420166015625 831.5599975585938 C 1490.420166015625 812.0733642578125 1493.8134765625 794.1366577148438 1500.60009765625 777.75 C 1507.3934326171875 761.3633422851562 1516.7701416015625 747.2633056640625 1528.7301025390625 735.4500122070312 C 1540.690185546875 723.6366577148438 1554.936767578125 714.4466552734375 1571.47021484375 707.8800048828125 C 1588.0035400390625 701.306640625 1606.013427734375 698.02001953125 1625.5001220703125 698.02001953125 C 1634.94677734375 698.02001953125 1644.6168212890625 698.6866455078125 1654.5101318359375 700.02001953125 C 1664.4034423828125 701.3466796875 1674.0001220703125 703.4500122070312 1683.3001708984375 706.3300170898438 C 1692.60009765625 709.2100219726562 1701.383544921875 712.9366455078125 1709.650146484375 717.510009765625 C 1717.9168701171875 722.0899658203125 1725.113525390625 727.7366943359375 1731.2401123046875 734.4500122070312 C 1737.3668212890625 741.1699829101562 1742.2401123046875 748.9600219726562 1745.860107421875 757.8200073242188 C 1749.480224609375 766.67333984375 1751.2901611328125 776.7833251953125 1751.2901611328125 788.1500244140625 ZM 1859.577392578125 838.6500244140625 C 1868.730712890625 840.7166748046875 1877.884033203125 842.3399658203125 1887.037353515625 843.52001953125 C 1896.190673828125 844.7000122070312 1905.4173583984375 845.2899780273438 1914.71728515625 845.2899780273438 C 1924.4573974609375 845.2899780273438 1933.500732421875 844.36669921875 1941.847412109375 842.52001953125 C 1950.1873779296875 840.67333984375 1957.420654296875 837.5733642578125 1963.54736328125 833.219970703125 C 1969.674072265625 828.86669921875 1974.50732421875 823.0733642578125 1978.04736328125 815.8399658203125 C 1981.593994140625 808.5999755859375 1983.3673095703125 799.5933227539062 1983.3673095703125 788.8200073242188 C 1983.3673095703125 780.106689453125 1982.1873779296875 772.13330078125 1979.827392578125 764.9000244140625 C 1977.460693359375 757.6666870117188 1973.9539794921875 751.4666748046875 1969.307373046875 746.2999877929688 C 1964.654052734375 741.13330078125 1958.9306640625 737.1099853515625 1952.1373291015625 734.22998046875 C 1945.3507080078125 731.3499755859375 1937.4539794921875 729.9100341796875 1928.4473876953125 729.9100341796875 C 1920.0340576171875 729.9100341796875 1912.46728515625 731.4600219726562 1905.747314453125 734.5599975585938 C 1899.02734375 737.6600341796875 1893.1207275390625 741.8333129882812 1888.02734375 747.0800170898438 C 1882.93408203125 752.3200073242188 1878.5806884765625 758.4100341796875 1874.9674072265625 765.3499755859375 C 1871.347412109375 772.2833251953125 1868.3572998046875 779.5166625976562 1865.997314453125 787.0499877929688 C 1863.6373291015625 794.57666015625 1861.940673828125 802.1799926757812 1860.9073486328125 809.8599853515625 C 1859.8740234375 817.5333251953125 1859.3572998046875 824.7666625976562 1859.3572998046875 831.5599975585938 C 1859.3572998046875 832.739990234375 1859.3572998046875 833.9199829101562 1859.3572998046875 835.0999755859375 C 1859.3572998046875 836.280029296875 1859.4306640625 837.4633178710938 1859.577392578125 838.6500244140625 M 2044.04736328125 788.1500244140625 C 2044.04736328125 798.6366577148438 2042.347412109375 807.9766845703125 2038.9473876953125 816.1699829101562 C 2035.553955078125 824.3633422851562 2030.940673828125 831.5599975585938 2025.107421875 837.760009765625 C 2019.2740478515625 843.9600219726562 2012.520751953125 849.2000122070312 2004.847412109375 853.47998046875 C 1997.1673583984375 857.760009765625 1988.9739990234375 861.2666625976562 1980.267333984375 864 C 1971.553955078125 866.7333374023438 1962.583984375 868.6900024414062 1953.357421875 869.8699951171875 C 1944.1307373046875 871.0499877929688 1935.1640625 871.6400146484375 1926.4573974609375 871.6400146484375 C 1915.384033203125 871.6400146484375 1904.4573974609375 870.86669921875 1893.6773681640625 869.3200073242188 C 1882.904052734375 867.7666625976562 1872.2740478515625 865.2933349609375 1861.787353515625 861.9000244140625 C 1863.4140625 871.6400146484375 1865.997314453125 880.9033203125 1869.537353515625 889.6900024414062 C 1873.083984375 898.4766845703125 1877.8106689453125 906.1533203125 1883.7174072265625 912.719970703125 C 1889.6173095703125 919.2866821289062 1896.8873291015625 924.489990234375 1905.52734375 928.3300170898438 C 1914.16064453125 932.1699829101562 1924.384033203125 934.0900268554688 1936.1973876953125 934.0900268554688 C 1944.0240478515625 934.0900268554688 1951.480712890625 932.9099731445312 1958.5673828125 930.5499877929688 C 1965.654052734375 928.183349609375 1972.1473388671875 924.8599853515625 1978.04736328125 920.5800170898438 C 1983.9539794921875 916.2999877929688 1989.16064453125 911.2066650390625 1993.6673583984375 905.2999877929688 C 1998.1673583984375 899.393310546875 2001.8206787109375 892.8233642578125 2004.6273193359375 885.5899658203125 L 2036.9573974609375 897.5499877929688 C 2032.083984375 909.2166748046875 2025.404052734375 919.2933349609375 2016.9173583984375 927.780029296875 C 2008.424072265625 936.2666625976562 1998.827392578125 943.280029296875 1988.1273193359375 948.8200073242188 C 1977.420654296875 954.3533325195312 1966.053955078125 958.4500122070312 1954.02734375 961.1099853515625 C 1941.9940185546875 963.7633056640625 1930.0706787109375 965.0900268554688 1918.25732421875 965.0900268554688 C 1898.770751953125 965.0900268554688 1880.7607421875 961.806640625 1864.227294921875 955.239990234375 C 1847.6939697265625 948.6666870117188 1833.4473876953125 939.4766845703125 1821.4873046875 927.6699829101562 C 1809.52734375 915.856689453125 1800.150634765625 901.7566528320312 1793.3572998046875 885.3699951171875 C 1786.5706787109375 868.9833374023438 1783.1773681640625 851.0466918945312 1783.1773681640625 831.5599975585938 C 1783.1773681640625 812.0733642578125 1786.5706787109375 794.1366577148438 1793.3572998046875 777.75 C 1800.150634765625 761.3633422851562 1809.52734375 747.2633056640625 1821.4873046875 735.4500122070312 C 1833.4473876953125 723.6366577148438 1847.6939697265625 714.4466552734375 1864.227294921875 707.8800048828125 C 1880.7607421875 701.306640625 1898.770751953125 698.02001953125 1918.25732421875 698.02001953125 C 1927.7039794921875 698.02001953125 1937.3740234375 698.6866455078125 1947.267333984375 700.02001953125 C 1957.16064453125 701.3466796875 1966.75732421875 703.4500122070312 1976.057373046875 706.3300170898438 C 1985.357421875 709.2100219726562 1994.140625 712.9366455078125 2002.4073486328125 717.510009765625 C 2010.674072265625 722.0899658203125 2017.8707275390625 727.7366943359375 2023.997314453125 734.4500122070312 C 2030.1240234375 741.1699829101562 2034.997314453125 748.9600219726562 2038.6173095703125 757.8200073242188 C 2042.2373046875 766.67333984375 2044.04736328125 776.7833251953125 2044.04736328125 788.1500244140625 ZM 2308.234375 726.8099975585938 L 2266.154541015625 796.5700073242188 C 2264.3876953125 790.663330078125 2262.10107421875 784.02001953125 2259.29443359375 776.6400146484375 C 2256.48779296875 769.260009765625 2253.017822265625 762.356689453125 2248.884521484375 755.9299926757812 C 2244.7509765625 749.510009765625 2239.804443359375 744.1233520507812 2234.04443359375 739.77001953125 C 2228.291015625 735.4166870117188 2221.647705078125 733.239990234375 2214.114501953125 733.239990234375 C 2207.17431640625 733.239990234375 2201.15771484375 735.010009765625 2196.064453125 738.5499877929688 C 2190.97119140625 742.0899658203125 2186.654541015625 746.703369140625 2183.114501953125 752.3900146484375 C 2179.56787109375 758.07666015625 2176.651123046875 764.5 2174.364501953125 771.6600341796875 C 2172.077880859375 778.8200073242188 2170.307861328125 786.0533447265625 2169.054443359375 793.3599853515625 C 2167.79443359375 800.6666870117188 2166.9443359375 807.6799926757812 2166.50439453125 814.4000244140625 C 2166.064453125 821.1133422851562 2165.844482421875 826.9066772460938 2165.844482421875 831.780029296875 L 2165.844482421875 960 L 2090.764404296875 960 L 2090.764404296875 704.22998046875 L 2119.554443359375 704.22998046875 L 2149.89453125 763.7999877929688 C 2154.02783203125 754.2000122070312 2158.7509765625 745.3766479492188 2164.064453125 737.3300170898438 C 2169.384521484375 729.2833251953125 2175.510986328125 722.3466796875 2182.4443359375 716.52001953125 C 2189.384521484375 710.6866455078125 2197.247802734375 706.1466674804688 2206.034423828125 702.9000244140625 C 2214.821044921875 699.6466674804688 2224.747802734375 698.02001953125 2235.814453125 698.02001953125 C 2241.574462890625 698.02001953125 2247.997802734375 698.5 2255.08447265625 699.4599609375 C 2262.171142578125 700.4200439453125 2269.111083984375 702.046630859375 2275.904541015625 704.3399658203125 C 2282.691162109375 706.6266479492188 2288.96435546875 709.6133422851562 2294.724365234375 713.2999877929688 C 2300.484375 716.9933471679688 2304.98779296875 721.4967041015625 2308.234375 726.8099975585938 ZM 2559.583251953125 878.280029296875 C 2559.583251953125 889.5066528320312 2557.95654296875 899.4733276367188 2554.703125 908.1799926757812 C 2551.45654296875 916.893310546875 2547.02978515625 924.4600219726562 2541.423095703125 930.8800048828125 C 2535.809814453125 937.2999877929688 2529.16650390625 942.6900024414062 2521.4931640625 947.0499877929688 C 2513.813232421875 951.4033203125 2505.579833984375 954.9066772460938 2496.793212890625 957.5599975585938 C 2488.01318359375 960.219970703125 2478.8232421875 962.1400146484375 2469.22314453125 963.3200073242188 C 2459.6298828125 964.5 2450.10986328125 965.0900268554688 2440.6630859375 965.0900268554688 C 2427.963134765625 965.0900268554688 2416.7431640625 964.280029296875 2407.003173828125 962.6599731445312 C 2397.256591796875 961.0333251953125 2387.953125 958.413330078125 2379.09326171875 954.7999877929688 C 2370.23974609375 951.1799926757812 2361.419921875 946.489990234375 2352.633056640625 940.72998046875 C 2343.846435546875 934.9766845703125 2334.06640625 927.9666748046875 2323.293212890625 919.7000122070312 L 2366.9130859375 884.0399780273438 C 2370.89990234375 891.5733642578125 2376.179931640625 898.4033203125 2382.753173828125 904.530029296875 C 2389.31982421875 910.6566772460938 2396.146484375 915.933349609375 2403.233154296875 920.3599853515625 C 2410.31982421875 924.7866821289062 2417.1865234375 928.183349609375 2423.833251953125 930.5499877929688 C 2430.47314453125 932.9099731445312 2435.85986328125 934.0900268554688 2439.9931640625 934.0900268554688 C 2443.39306640625 934.0900268554688 2447.233154296875 933.97998046875 2451.51318359375 933.760009765625 C 2455.793212890625 933.5399780273438 2460.146484375 933.0966796875 2464.5732421875 932.4299926757812 C 2469.006591796875 931.7633056640625 2473.36328125 930.7666625976562 2477.64306640625 929.4400024414062 C 2481.923095703125 928.1133422851562 2485.72314453125 926.3033447265625 2489.043212890625 924.010009765625 C 2492.369873046875 921.7233276367188 2495.02978515625 918.8466796875 2497.023193359375 915.3800048828125 C 2499.0166015625 911.9066772460938 2500.01318359375 907.7366943359375 2500.01318359375 902.8699951171875 C 2500.01318359375 897.8499755859375 2498.7197265625 893.4566650390625 2496.133056640625 889.6900024414062 C 2493.55322265625 885.92333984375 2490.193115234375 882.6400146484375 2486.05322265625 879.8399658203125 C 2481.919921875 877.0333251953125 2477.196533203125 874.6699829101562 2471.883056640625 872.75 C 2466.56982421875 870.8300170898438 2461.2197265625 869.13330078125 2455.833251953125 867.6600341796875 C 2450.43994140625 866.1799926757812 2445.233154296875 864.8866577148438 2440.213134765625 863.780029296875 C 2435.19970703125 862.67333984375 2430.846435546875 861.6033325195312 2427.153076171875 860.5700073242188 C 2420.35986328125 858.6500244140625 2413.19970703125 856.693359375 2405.673095703125 854.7000122070312 C 2398.139892578125 852.7066650390625 2390.68310546875 850.4199829101562 2383.30322265625 847.8399658203125 C 2375.923095703125 845.2533569335938 2368.873046875 842.1900024414062 2362.153076171875 838.6500244140625 C 2355.43994140625 835.1033325195312 2349.536376953125 830.856689453125 2344.443115234375 825.9100341796875 C 2339.349853515625 820.9633178710938 2335.289794921875 815.13330078125 2332.26318359375 808.4199829101562 C 2329.236572265625 801.7000122070312 2327.72314453125 793.836669921875 2327.72314453125 784.8300170898438 C 2327.72314453125 768.296630859375 2331.006591796875 754.4566650390625 2337.5732421875 743.3099975585938 C 2344.146484375 732.163330078125 2352.81982421875 723.2333374023438 2363.59326171875 716.52001953125 C 2374.373046875 709.7999877929688 2386.62646484375 705.0366821289062 2400.353271484375 702.22998046875 C 2414.08642578125 699.42333984375 2428.039794921875 698.02001953125 2442.213134765625 698.02001953125 C 2451.953125 698.02001953125 2462.213134765625 699.0166625976562 2472.9931640625 701.010009765625 C 2483.7666015625 703.0032958984375 2494.24658203125 705.9566650390625 2504.43310546875 709.8699951171875 C 2514.619873046875 713.7833251953125 2524.14306640625 718.546630859375 2533.003173828125 724.1600341796875 C 2541.86328125 729.7666625976562 2549.24658203125 736.1866455078125 2555.153076171875 743.4199829101562 L 2511.523193359375 779.2999877929688 C 2508.2763671875 770.4400024414062 2504.033203125 762.836669921875 2498.793212890625 756.489990234375 C 2493.55322265625 750.1366577148438 2487.869873046875 744.933349609375 2481.7431640625 740.8800048828125 C 2475.616455078125 736.8200073242188 2469.33984375 733.8300170898438 2462.9130859375 731.9100341796875 C 2456.4931640625 729.989990234375 2450.55322265625 729.030029296875 2445.09326171875 729.030029296875 C 2439.773193359375 729.030029296875 2433.793212890625 729.25 2427.153076171875 729.6900024414062 C 2420.506591796875 730.1366577148438 2414.269775390625 731.393310546875 2408.443115234375 733.4600219726562 C 2402.60986328125 735.5266723632812 2397.6630859375 738.663330078125 2393.603271484375 742.8699951171875 C 2389.543212890625 747.07666015625 2387.51318359375 752.8699951171875 2387.51318359375 760.25 C 2387.51318359375 765.5633544921875 2388.729736328125 770.1033325195312 2391.1630859375 773.8699951171875 C 2393.603271484375 777.6366577148438 2396.81640625 780.88330078125 2400.80322265625 783.6099853515625 C 2404.789794921875 786.3433227539062 2409.329833984375 788.63330078125 2414.423095703125 790.47998046875 C 2419.5166015625 792.32666015625 2424.7197265625 793.9500122070312 2430.033203125 795.3499755859375 C 2435.346435546875 796.7566528320312 2440.51318359375 797.9766845703125 2445.533203125 799.010009765625 C 2450.55322265625 800.0433349609375 2455.056396484375 801.1500244140625 2459.043212890625 802.3300170898438 C 2465.829833984375 804.25 2473.0263671875 806.2066650390625 2480.633056640625 808.2000122070312 C 2488.233154296875 810.193359375 2495.7265625 812.47998046875 2503.11328125 815.0599975585938 C 2510.4931640625 817.6466674804688 2517.616455078125 820.67333984375 2524.483154296875 824.1400146484375 C 2531.34326171875 827.606689453125 2537.3564453125 831.8499755859375 2542.523193359375 836.8699951171875 C 2547.696533203125 841.8900146484375 2551.833251953125 847.760009765625 2554.93310546875 854.47998046875 C 2558.033203125 861.193359375 2559.583251953125 869.1266479492188 2559.583251953125 878.280029296875 Z" transform="matrix(0.8262250423431396, 0, 0, 0.8262250423431396, -369.9919738769531, -203.91836547851562)" style="fill: rgb(51, 51, 51); white-space: pre; color: rgb(51, 51, 51); stroke: rgb(255, 255, 255); paint-order: stroke; stroke-width: 11; stroke-opacity: 0.5;"/><g transform="matrix(2.279347419738769, 1.8067190647125244, -1.806723117828369, 2.2793474197387695, 466.85180664062506, -1738.529296875)"><g id="Layer_2_15_" transform="matrix(0.8781912922859193, 0, 5.551115123125783e-17, 0.8781912922859192, 38.34134699973174, 116.18274217233477)">
	<g id="Layer_1-2_15_">
		<path class="st0" d="M 417.98675537109375 669.2886962890625 C 417.98675537109375 669.2886962890625 350.4 559 347.7 554.3 L 331.09999999999997 525.3 C 328.4 520.5999999999999 328.4 512.9 331.09999999999997 508.09999999999997 L 347.7 479.29999999999995 C 350.4 474.59999999999997 357.09999999999997 470.9 362.4 470.9 L 395.7 470.9 C 401.09999999999997 470.9 407.7 474.59999999999997 410.4 479.29999999999995 L 427 508.09999999999997 C 429.7 512.8 429.7 520.5 427 525.1999999999999 L 410.4 554.1999999999999 C 407.7 558.9 401 562.9 395.59999999999997 562.9 L 377.3223937988281 562.4546875 L 436.3883972167969 658.0437622070312 C 436.3883972167969 658.0437622070312 439.5907072107976 663.2614105626598 440.2772216796875 665.305908203125 C 441.80615234375 669.8591918945312 428.9995637182731 679.6950227243708 423.5888977050781 676.5204467773438 C 421.3772888183594 675.2228393554688 417.98675537109375 669.2886962890625 417.98675537109375 669.2886962890625 Z" style="fill: rgb(51, 51, 51); stroke: rgb(255, 255, 255); stroke-width: 4; stroke-opacity: 0.5; paint-order: stroke;"/>
	</g>
</g><path style="fill: rgb(51, 51, 51); fill-opacity: 1; stroke: rgb(255, 255, 255); stroke-opacity: 0.5; stroke-width: 4; paint-order: stroke;"/><path style="fill: rgb(51, 51, 51); fill-opacity: 1; stroke: rgb(255, 255, 255); stroke-opacity: 0.5; stroke-width: 4; paint-order: stroke;"/><path style="fill: rgb(51, 51, 51); fill-opacity: 1; stroke: rgb(255, 255, 255); stroke-opacity: 0.5; stroke-width: 4; paint-order: stroke;"/><path style="fill: rgb(51, 51, 51); fill-opacity: 1; stroke: rgb(255, 255, 255); stroke-opacity: 0.5; stroke-width: 4; paint-order: stroke;"/><path style="fill: rgb(51, 51, 51); fill-opacity: 1; stroke: rgb(255, 255, 255); stroke-opacity: 0.5; stroke-width: 4; paint-order: stroke;"/></g></svg>